# xmcd
#
# Track frame offsets:
#	150
#	13967
#	27642
#	41041
#	54889
#	70201
#	83971
#	97531
#	111537
#	125245
#	138407
#	152242
#	165506
#	179709
#	193343
#	206875
#	220825
#	234232
#	247321
#	261050
#	274629
#	288486
#	302112
#	315511
#	329278
#
# Disc length: 4575 seconds
#
# Revision: 2
# Processed by: cddbd v1.5.2PL0 Copyright (c) Steve Scherf et al.
# Submitted via: EasyCDDAExtractor 2010.6.0.0
#
DISCID=8111dd19
DTITLE=Various Artist - Melodifestivalen 10 År På Turné 2002-2011
DYEAR=2011
DGENRE=Pop
TTITLE0=Alcazar - Stay The Night
TTITLE1=Ola - Unstoppable
TTITLE2=Mendez - Adrenaline
TTITLE3=Bosson - Efharisto
TTITLE4=Bwo - Temple Of Love
TTITLE5=The Attic (feat. Therese) - The Arrival
TTITLE6=Star Pilots - Higher
TTITLE7=Verona - La Musica
TTITLE8=Autolove - Bulletproof Heart
TTITLE9=The Ark - The Worrying Kind
TTITLE10=Sanne Salomonsen - Higher Ground
TTITLE11=Malena Ernmann - La Voix
TTITLE12=Fredrik Kempe - Finally
TTITLE13=Linda Pritchard - You're Making Me Hot Hot Hot
TTITLE14=Pay TV - Trendy Discoteque
TTITLE15=Anders Ekborg - The Saviour
TTITLE16=Rigo and The Topaz Sound (Feat Red Fox) - I Got U
TTITLE17=Andra Genarationen - Kebabpizza Slivovitza
TTITLE18=H.E.A.T - 1000 Miles
TTITLE19=The Poodles - Night Of Passion
TTITLE20=Nordman - I Lågornas Sken
TTITLE21=Rednex - Mama Take Me Home
TTITLE22=Brandsta City Släckers - Kom Och Ta Mig
TTITLE23=Jimmy Jansson - Vi Kan Gunga
TTITLE24=Andreas Johnson - Sing For Me
EXTD=
EXTT0=
EXTT1=
EXTT2=
EXTT3=
EXTT4=
EXTT5=
EXTT6=
EXTT7=
EXTT8=
EXTT9=
EXTT10=
EXTT11=
EXTT12=
EXTT13=
EXTT14=
EXTT15=
EXTT16=
EXTT17=
EXTT18=
EXTT19=
EXTT20=
EXTT21=
EXTT22=
EXTT23=
EXTT24=
PLAYORDER=
